Coordinates
version=1
nRows=4
nColumns=107
inDegrees=yes

Units are S.I. units (second, meters, Newtons, ...)
If the header above contains a line with 'inDegrees', this indicates whether rotational values are in degrees (yes) or radians (no).

endheader
time	sternoclavicular_r2	sternoclavicular_r3	unrotscap_r3	unrotscap_r2	acromioclavicular_r2	acromioclavicular_r3	acromioclavicular_r1	unrothum_r1	unrothum_r3	unrothum_r2	elv_angle	shoulder_elv	shoulder1_r2	shoulder_rot	elbow_flexion	pro_sup	deviation	flexion	proximal_distal_r1	proximal_distal_r3	cmc_flexion	cmc_abduction	mp_flexion	ip_flexion	mcp2_flexion	mcp2_abduction	pm2_flexion	md2_flexion	mcp3_flexion	mcp3_abduction	pm3_flexion	md3_flexion	mcp4_flexion	mcp4_abduction	pm4_flexion	md4_flexion	mcp5_flexion	mcp5_abduction	pm5_flexion	md5_flexion	bicpt_tx	bicpt_ty	bicpt_tz	bicpt2_tx	bicpt2_ty	bicpt2_tz	ptpt_tx	ptpt_ty	ptpt_tz	FCUpt_tx	FCUpt_ty	FCUpt_tz	EDCpt_tx	EDCpt_ty	EDCpt_tz	APLpt_tx	APLpt_ty	APLpt_tz	FPLpt_tx	FPLpt_ty	FPLpt_tz	FPLpt2_tx	FPLpt2_ty	FPLpt2_tz	PEC1pt2_tx	PEC1pt2_ty	PEC1pt2_tz	PEC1pt3_tx	PEC1pt3_ty	PEC1pt3_tz	PEC2pt2_tx	PEC2pt2_ty	PEC2pt2_tz	PEC2pt3_tx	PEC2pt3_ty	PEC2pt3_tz	PEC3pt2_tx	PEC3pt2_ty	PEC3pt2_tz	PEC3pt3_tx	PEC3pt3_ty	PEC3pt3_tz	DELT2pt2a_tx	DELT2pt2a_ty	DELT2pt2a_tz	DELT2pt2_tx	DELT2pt2_ty	DELT2pt2_tz	LAT1pt2_tx	LAT1pt2_ty	LAT1pt2_tz	LAT1pt3_tx	LAT1pt3_ty	LAT1pt3_tz	LAT2pt2_tx	LAT2pt2_ty	LAT2pt2_tz	LAT2pt3_tx	LAT2pt3_ty	LAT2pt3_tz	LAT3pt2_tx	LAT3pt2_ty	LAT3pt2_tz	LAT3pt3_tx	LAT3pt3_ty	LAT3pt3_tz
      0.96666667	     -0.30430494	      0.12888921	     -0.12888921	      0.30430494	     -0.06161556	      0.49795528	      0.22382747	     -0.22382747	     -0.49795528	      0.06161556	    106.97154061	     72.04689843	     -1.86700559	    -56.75309952	     29.67421539	     66.73116074	      0.32319509	     -0.48869282	      0.35312403	     -0.24434641	      2.41694379	      6.99863168	    -16.17813503	    -11.00856448	     19.58997806	      7.94051163	     19.40828280	    -15.27908624	     44.68957156	      0.42816786	     66.74081609	     35.90103084	     38.02414460	     -8.63922648	     68.28077320	     29.26853454	     14.39038955	     -8.83648905	     -8.62556863	      4.99287156	      0.00088153	     -0.03100112	     -0.00484783	      0.01580699	     -0.01826115	     -0.00411550	      0.00261932	     -0.06808826	     -0.00542555	      0.01058177	     -0.18283754	     -0.00030712	     -0.00800772	      0.00257791	     -0.00023912	      0.00030000	      0.00012000	      0.00060000	      0.00038400	      0.00115200	      0.00064800	      0.00003968	     -0.00005718	     -0.00006861	      0.00236154	      0.00828540	      0.00576376	     -0.00772504	      0.01865216	     -0.01769153	      0.00236154	      0.00828540	      0.00576376	      0.00052034	      0.01729127	     -0.00908592	      0.00378886	      0.00460741	      0.01556577	      0.00000000	      0.00693703	      0.00000000	     -0.00676441	     -0.03126038	     -0.00571473	      0.02595102	     -0.00173694	     -0.02371532	     -0.00084055	      0.01408918	     -0.00576376	      0.00232151	      0.02033325	     -0.01681096	     -0.00564368	      0.01220796	     -0.00516337	     -0.01176767	      0.02577680	     -0.02885881	     -0.02209440	      0.01364890	     -0.00692451	     -0.01464955	      0.02977941	     -0.03606351
      1.00000000	     -0.30252348	      0.12813467	     -0.12813467	      0.30252348	     -0.06125485	      0.49504016	      0.22251714	     -0.22251714	     -0.49504016	      0.06125485	    109.79152442	     71.62512288	     -1.91622359	    -67.20857018	     30.07149271	     78.23352167	      0.34429535	     -0.53419059	      0.37023298	     -0.26709530	      3.68493188	      6.91368999	    -13.63895422	     -7.83764847	     23.75626725	      6.42144145	     19.87167352	    -14.23693113	     41.83628632	     -1.35291383	     59.86235829	     32.45797758	     34.16936932	     -9.61655864	     60.35553012	     27.56816056	     12.17140307	     -9.95031633	     -5.79152571	      4.99728078	      0.00089467	     -0.03104665	     -0.00485517	      0.01497375	     -0.01836907	     -0.00236377	      0.00176943	     -0.06863782	     -0.00635213	      0.01185512	     -0.18249218	     -0.00010741	     -0.00938800	      0.00316112	     -0.00052418	      0.00030758	      0.00012303	      0.00061515	      0.00039370	      0.00118109	      0.00066437	      0.00004240	     -0.00008458	     -0.00010150	      0.00234771	      0.00823690	      0.00573001	     -0.00767981	      0.01854296	     -0.01758796	      0.00234771	      0.00823690	      0.00573001	      0.00051729	      0.01719004	     -0.00903273	      0.00377222	      0.00458043	      0.01552227	      0.00000000	      0.00685560	      0.00000000	     -0.00672481	     -0.03107737	     -0.00564704	      0.02611366	     -0.00212917	     -0.03090893	     -0.00083563	      0.01400670	     -0.00573001	      0.00230792	      0.02021422	     -0.01671254	     -0.00561064	      0.01213649	     -0.00513314	     -0.01169878	      0.02562590	     -0.02868987	     -0.02196506	      0.01356899	     -0.00688398	     -0.01456379	      0.02960508	     -0.03585238
      1.03333333	     -0.30271475	      0.12821568	     -0.12821568	      0.30271475	     -0.06129358	      0.49535314	      0.22265783	     -0.22265783	     -0.49535314	      0.06129358	    111.40120122	     71.67040733	     -1.94431775	    -73.05407691	     29.94851733	     83.68922722	      0.37310403	     -0.62024224	      0.39241401	     -0.31012112	      3.04679563	      7.66263017	    -10.31567318	     -5.12058311	     28.74354348	      3.82357945	     19.42222090	    -13.73603302	     38.62991772	     -4.34444369	     52.04497295	     29.03957122	     29.32344983	    -11.15286539	     52.61531747	     25.24872470	      8.22948985	    -10.85863173	     -3.40601755	      5.06135422	      0.00089060	     -0.03103256	     -0.00485290	      0.01447266	     -0.01833566	     -0.00146801	      0.00136631	     -0.06889848	     -0.00679162	      0.01247337	     -0.18231523	      0.00002216	     -0.01004268	      0.00345203	     -0.00068447	      0.00031243	      0.00012497	      0.00062485	      0.00039991	      0.00119972	      0.00067484	      0.00004203	     -0.00007102	     -0.00008522	      0.00234920	      0.00824210	      0.00573364	     -0.00768467	      0.01855469	     -0.01759908	      0.00234920	      0.00824210	      0.00573364	      0.00051762	      0.01720091	     -0.00903844	      0.00377401	      0.00458333	      0.01552696	      0.00000000	      0.00686431	      0.00000000	     -0.00672906	     -0.03109702	     -0.00565429	      0.02556710	     -0.00234286	     -0.03489161	     -0.00083616	      0.01401556	     -0.00573364	      0.00230938	      0.02022700	     -0.01672311	     -0.00561419	      0.01214416	     -0.00513638	     -0.01170618	      0.02564210	     -0.02870800	     -0.02197894	      0.01357757	     -0.00688833	     -0.01457300	      0.02962379	     -0.03587505
      1.06666667	     -0.30399528	      0.12875805	     -0.12875805	      0.30399528	     -0.06155286	      0.49744857	      0.22359971	     -0.22359971	     -0.49744857	      0.06155286	    112.57727439	     71.97358579	     -1.96484410	    -77.26248048	     29.27739126	     85.71832398	      0.38674615	     -0.77260199	      0.40244374	     -0.38630099	      1.66293131	      9.19392716	     -8.15671790	     -2.89070477	     33.87482445	      0.58850506	     17.81161987	    -13.06015045	     35.36670112	     -7.24845858	     44.81314041	     25.95473874	     23.51511558	    -12.19350303	     45.86645083	     24.31402856	      1.71315565	    -11.26239617	      1.82533548	      5.07551387	      0.00086841	     -0.03095564	     -0.00484051	      0.01426893	     -0.01815335	     -0.00112422	      0.00121638	     -0.06899542	     -0.00695507	      0.01270566	     -0.18224726	      0.00007607	     -0.01028617	      0.00356257	     -0.00074820	      0.00029059	      0.00011624	      0.00058119	      0.00037196	      0.00111588	      0.00062768	      0.00003334	     -0.00004004	     -0.00004805	      0.00235914	      0.00827697	      0.00575789	     -0.00771717	      0.01863318	     -0.01767353	      0.00235914	      0.00827697	      0.00575789	      0.00051981	      0.01727368	     -0.00907668	      0.00378597	      0.00460272	      0.01555824	      0.00000000	      0.00692284	      0.00000000	     -0.00675753	     -0.03122857	     -0.00570294	      0.02489073	     -0.00249174	     -0.03768889	     -0.00083969	      0.01407485	     -0.00575789	      0.00231915	      0.02031256	     -0.01679385	     -0.00563794	      0.01219553	     -0.00515811	     -0.01175570	      0.02575057	     -0.02882944	     -0.02207192	      0.01363501	     -0.00691747	     -0.01463464	      0.02974911	     -0.03602681
